<?xml version="1.0" standalone="no"?>
<!DOCTYPE svg PUBLIC "-//W3C//DTD SVG 1.1//EN" "http://www.w3.org/Graphics/SVG/1.1/DTD/svg11.dtd" >
<svg>
<metadata>
Created by FontForge 20090622 at Wed Aug 12 16:12:47 2020
 By deploy user
Copyright (c) Inigo Jerez. www.textaxis.com, 2008-2013. All rights reserved.
</metadata>
<defs>
<font id="ASM-Bold" horiz-adv-x="620" >
  <font-face 
    font-family="ASM-Bold"
    font-weight="400"
    font-stretch="normal"
    units-per-em="1000"
    panose-1="2 0 5 9 4 0 0 2 0 4"
    ascent="759"
    descent="-241"
    x-height="516"
    cap-height="709"
    bbox="0 -242 622 991"
    underline-thickness="45"
    underline-position="-71"
    unicode-range="U+0020-U+FB02"
  />
<missing-glyph 
 />
    <glyph glyph-name="fi" unicode="fi" 
d="M45 404v107h81v52q0 90 61.5 136.5t165.5 46.5q45 0 84 -5t55 -11l17 -5v-113q-67 24 -149 24q-56 0 -86 -18.5t-30 -64.5v-42h282v-511h-118v404h-164v-404h-118v404h-81z" />
    <glyph glyph-name="fl" unicode="fl" 
d="M45 404v107h81v56q0 90 58.5 134.5t162.5 44.5q48 0 93 -7t66 -15l20 -7v-717h-118v404h-164v-404h-118v404h-81zM244 557v-46h164v120q-30 5 -54 5q-56 0 -83 -16.5t-27 -62.5z" />
    <glyph glyph-name=".notdef" 
 />
    <glyph glyph-name=".null" horiz-adv-x="0" 
 />
    <glyph glyph-name="nonmarkingreturn" 
 />
    <glyph glyph-name="space" unicode=" " 
 />
    <glyph glyph-name="exclam" unicode="!" 
d="M381 709l-22 -474h-98l-23 474h143zM216 89q0 39 27.5 66.5t66.5 27.5q38 0 65.5 -27.5t27.5 -66.5q0 -38 -27.5 -65.5t-65.5 -27.5q-39 0 -66.5 27.5t-27.5 65.5z" />
    <glyph glyph-name="quotedbl" unicode="&#x22;" 
d="M272 709l-9 -314h-117l-9 314h135zM483 709l-9 -314h-117l-9 314h135z" />
    <glyph glyph-name="numbersign" unicode="#" 
d="M311 0l23 177h-94l-23 -177h-111l23 177h-106v110h121l16 125h-104v110h119l23 173h111l-23 -173h94l23 173h111l-23 -173h106v-110h-121l-16 -125h104v-110h-119l-23 -177h-111zM271 412l-16 -125h94l16 125h-94z" />
    <glyph glyph-name="dollar" unicode="$" 
d="M268 -87v178q-54 7 -93.5 30.5t-57.5 51t-28.5 54.5t-11.5 45l-1 18h117q0 -4 1 -10.5t7.5 -23t18.5 -29.5t38 -23.5t61 -10.5q100 0 100 57q0 22 -15 33t-52 17l-91 15q-154 25 -154 156q0 65 43.5 107t117.5 52v169h110v-171q46 -9 79.5 -32t49 -49t24.5 -50.5
t10 -40.5l1 -16h-116q0 4 -0.5 10t-6.5 21t-16.5 27t-34 21.5t-54.5 9.5q-88 0 -88 -54q0 -40 59 -50l91 -15q163 -27 163 -157q0 -67 -43.5 -108t-117.5 -53v-179h-110z" />
    <glyph glyph-name="percent" unicode="%" 
d="M33 565q0 69 35.5 110.5t105.5 41.5q71 0 106 -41.5t35 -110.5v-21q0 -69 -35 -111t-106 -42q-70 0 -105.5 42t-35.5 111v21zM174 632q-52 0 -52 -67v-21q0 -34 11.5 -51t40.5 -17t40.5 17t11.5 51v21q0 67 -52 67zM305 164q0 69 35.5 110.5t105.5 41.5q71 0 106 -41.5
t35 -110.5v-21q0 -69 -35 -111t-106 -42q-70 0 -105.5 42t-35.5 111v21zM446 231q-52 0 -52 -67v-21q0 -34 11.5 -51t40.5 -17t40.5 17t11.5 51v21q0 67 -52 67zM57 128v108l506 341v-108z" />
    <glyph glyph-name="ampersand" unicode="&#x26;" 
d="M256 -13q-104 0 -162.5 54t-58.5 147q0 117 114 189l-12 15q-62 73 -62 153t52.5 128.5t138.5 48.5q84 0 136.5 -49t52.5 -129q0 -105 -123 -179l-18 -11l113 -130q18 56 18 122v69h112v-70q0 -122 -51 -212l116 -133h-145l-41 47q-76 -60 -180 -60zM151 188
q0 -41 29.5 -67.5t74.5 -26.5q64 0 109 36l-145 167q-68 -43 -68 -109zM244 435l20 12q75 46 75 96q0 34 -20 54t-55 20q-33 0 -53 -20.5t-20 -52.5q0 -47 46 -100z" />
    <glyph glyph-name="quotesingle" unicode="'" 
d="M378 709l-9 -314h-117l-9 314h135z" />
    <glyph glyph-name="parenleft" unicode="(" 
d="M200 322q0 81 13.5 156.5t33 125t39 87t32.5 55.5l14 17h148q-6 -6 -16.5 -18t-36.5 -53.5t-45.5 -89t-36 -123.5t-16.5 -157t15.5 -156.5t37.5 -125t44.5 -87t37.5 -55.5l16 -17h-148q-5 6 -14 18t-32 53.5t-40 89t-31.5 123.5t-14.5 157z" />
    <glyph glyph-name="parenright" unicode=")" 
d="M420 322q0 -81 -13.5 -156.5t-33 -125t-39 -87t-32.5 -55.5l-14 -17h-148q6 6 16.5 18t36.5 53.5t45.5 89t36 123.5t16.5 157t-15.5 156.5t-37.5 125t-44.5 87t-37.5 55.5l-16 17h148q5 -6 14 -18t32 -53.5t40 -89t31.5 -123.5t14.5 -157z" />
    <glyph glyph-name="asterisk" unicode="*" 
d="M80 398l137 74l-137 74l51 89l133 -82l-5 156h103l-5 -156l133 82l51 -89l-137 -74l137 -74l-51 -89l-133 82l5 -156h-103l5 156l-133 -82z" />
    <glyph glyph-name="plus" unicode="+" 
d="M52 203v110h203v203h110v-203h203v-110h-203v-203h-110v203h-203z" />
    <glyph glyph-name="comma" unicode="," 
d="M344 -183h-123l38 310h140z" />
    <glyph glyph-name="hyphen" unicode="-" 
d="M130 313h360v-110h-360v110z" />
    <glyph glyph-name="period" unicode="." 
d="M216 89q0 39 27.5 66.5t66.5 27.5q38 0 65.5 -27.5t27.5 -66.5q0 -38 -27.5 -65.5t-65.5 -27.5q-39 0 -66.5 27.5t-27.5 65.5z" />
    <glyph glyph-name="slash" unicode="/" 
d="M583 709l-419 -709h-132l419 709h132z" />
    <glyph glyph-name="zero" unicode="0" 
d="M69 458q0 127 60.5 196.5t180.5 69.5t180.5 -69.5t60.5 -196.5v-207q0 -127 -60.5 -196.5t-180.5 -69.5t-180.5 69.5t-60.5 196.5v207zM192 455v-174l211 284q-28 43 -93 43q-64 0 -91 -38.5t-27 -114.5zM217 143q27 -42 93 -42q64 0 91 38.5t27 114.5v172z" />
    <glyph glyph-name="one" unicode="1" 
d="M397 709v-593h175v-116h-473v116h176v473l-175 -92v118l179 94h118z" />
    <glyph glyph-name="two" unicode="2" 
d="M452 329l-200 -213h294v-116h-457v113l271 294q52 57 52 105q0 45 -25.5 69.5t-72.5 24.5q-33 0 -57 -11t-35 -27t-17.5 -32.5t-6.5 -27.5l-1 -11h-124q0 5 0.5 13t5.5 31.5t13 45t26 48t42.5 45t64.5 31.5t89 13q99 0 160 -55.5t61 -154.5q0 -96 -83 -185z" />
    <glyph glyph-name="three" unicode="3" 
d="M412 197q0 46 -27.5 72.5t-81.5 26.5h-88v115h88q49 0 77 26t28 75q0 45 -26.5 69.5t-73.5 24.5q-29 0 -50 -11t-31 -27t-16 -32.5t-7 -27.5v-11h-124q0 9 1.5 24.5t13.5 54.5t33.5 69t68.5 54.5t111 24.5q99 0 161 -55.5t62 -154.5q0 -102 -80 -160q84 -57 84 -159
q0 -99 -63.5 -154.5t-163.5 -55.5q-47 0 -85.5 12.5t-61.5 32.5t-40.5 44t-25.5 48.5t-12.5 44.5t-4.5 33l-1 12h124q0 -4 0.5 -11.5t6.5 -26.5t16 -33t32 -26t52 -12q48 0 76 24.5t28 69.5z" />
    <glyph glyph-name="four" unicode="4" 
d="M364 0v128h-314v117l289 464h141v-465h94v-116h-94v-128h-116zM180 244h184v297z" />
    <glyph glyph-name="five" unicode="5" 
d="M553 226q0 -110 -65 -175.5t-172 -65.5q-47 0 -85.5 12.5t-61.5 32.5t-40.5 44t-25.5 48.5t-12.5 44.5t-4.5 33l-1 12h124q0 -4 0.5 -11.5t6.5 -26.5t16 -33t32 -26t52 -12q114 0 114 125q0 61 -28.5 94t-83.5 33q-70 0 -97 -47h-115l13 401h401v-116h-290l-5 -152
q49 27 106 27q101 0 161.5 -62.5t60.5 -179.5z" />
    <glyph glyph-name="six" unicode="6" 
d="M314 724q47 0 85.5 -12t62 -31.5t41 -42.5t25.5 -46.5t12.5 -43t5.5 -31.5v-12h-124q0 4 -0.5 11t-6 25t-15.5 32t-32.5 25t-53.5 11q-54 0 -83 -31.5t-29 -91.5v-71q49 40 119 40q102 0 163.5 -59.5t61.5 -172.5q0 -114 -65 -176t-168 -62q-113 0 -173 64t-60 179v253
q0 115 60.5 179t173.5 64zM314 100q109 0 109 123q0 122 -109 122q-112 0 -112 -122q0 -59 29 -91t83 -32z" />
    <glyph glyph-name="seven" unicode="7" 
d="M542 597l-250 -597h-133l253 593h-326v116h456v-112z" />
    <glyph glyph-name="eight" unicode="8" 
d="M310 -15q-115 0 -177.5 58t-62.5 158q0 110 84 167q-68 56 -68 154q0 87 57.5 144.5t166.5 57.5t166.5 -57.5t57.5 -144.5q0 -98 -68 -154q84 -58 84 -167q0 -100 -62.5 -158t-177.5 -58zM310 99q55 0 86 27.5t31 79.5q0 50 -31 77t-86 27t-86 -27t-31 -77
q0 -52 31 -79.5t86 -27.5zM310 422q101 0 101 94t-101 94t-101 -94t101 -94z" />
    <glyph glyph-name="nine" unicode="9" 
d="M306 -15q-47 0 -85.5 12t-62 31.5t-41 42.5t-25.5 46.5t-12.5 43t-5.5 31.5v12h124q0 -4 0.5 -11t6 -25t15.5 -32t32.5 -25t53.5 -11q54 0 83 31.5t29 91.5v70q-47 -39 -119 -39q-102 0 -163.5 59.5t-61.5 172.5q0 114 65 176t168 62q113 0 173 -64t60 -179v-253
q0 -115 -60.5 -179t-173.5 -64zM306 609q-109 0 -109 -123q0 -122 109 -122q112 0 112 122q0 59 -29 91t-83 32z" />
    <glyph glyph-name="colon" unicode=":" 
d="M216 89q0 39 27.5 66.5t66.5 27.5q38 0 65.5 -27.5t27.5 -66.5q0 -38 -27.5 -65.5t-65.5 -27.5q-39 0 -66.5 27.5t-27.5 65.5zM216 426q0 39 27.5 66.5t66.5 27.5q38 0 65.5 -27.5t27.5 -66.5t-27.5 -66.5t-65.5 -27.5q-39 0 -66.5 27.5t-27.5 66.5z" />
    <glyph glyph-name="semicolon" unicode=";" 
d="M216 426q0 39 27.5 66.5t66.5 27.5q38 0 65.5 -27.5t27.5 -66.5t-27.5 -66.5t-65.5 -27.5q-39 0 -66.5 27.5t-27.5 66.5zM344 -183h-123l38 310h140z" />
    <glyph glyph-name="less" unicode="&#x3c;" 
d="M534 516v-123l-312 -135l312 -135v-123l-448 199v118z" />
    <glyph glyph-name="equal" unicode="=" 
d="M52 304v110h516v-110h-516zM52 92v110h516v-110h-516z" />
    <glyph glyph-name="greater" unicode="&#x3e;" 
d="M86 393v123l448 -199v-118l-448 -199v123l312 135z" />
    <glyph glyph-name="question" unicode="?" 
d="M285 201v161l65 54q57 48 57 98q0 42 -25 67t-71 25q-31 0 -53 -11t-32.5 -27t-16.5 -31.5t-7 -26.5v-11h-124q0 5 0.5 13t5 31.5t12.5 44.5t25.5 47t41 44.5t62 31.5t86.5 13q102 0 160.5 -56t58.5 -154q0 -53 -22.5 -99t-82.5 -96zM216 89q0 39 27.5 66.5t66.5 27.5
q38 0 65.5 -27.5t27.5 -66.5q0 -38 -27.5 -65.5t-65.5 -27.5q-39 0 -66.5 27.5t-27.5 65.5z" />
    <glyph glyph-name="at" unicode="@" 
d="M551 97h-114v20q-25 -27 -79 -27q-132 0 -132 177v34q0 177 132 177q45 0 70 -19q-1 73 -28.5 110t-89.5 37q-64 0 -91 -37.5t-27 -113.5v-340q0 -76 27 -113.5t91 -37.5q80 0 105 63h127q-18 -87 -76.5 -134t-155.5 -47q-119 0 -180 70.5t-61 198.5v340q0 128 61 198.5
t180 70.5t180 -70.5t61 -198.5v-358zM428 255v58q0 34 -8.5 49t-29.5 15q-24 0 -32.5 -14.5t-8.5 -49.5v-58q0 -35 8.5 -49.5t32.5 -14.5q21 0 29.5 15t8.5 49z" />
    <glyph glyph-name="A" unicode="A" 
d="M371 709l221 -709h-126l-47 159h-218l-47 -159h-126l221 709h122zM310 525l-75 -252h150z" />
    <glyph glyph-name="B" unicode="B" 
d="M95 709h244q109 0 166.5 -49t57.5 -144q0 -102 -85 -147q98 -47 98 -161q0 -105 -62 -156.5t-172 -51.5h-247v709zM453 213q0 98 -120 98h-116v-199h116q120 0 120 101zM440 511q0 44 -27 65t-86 21h-110v-174h110q113 0 113 88z" />
    <glyph glyph-name="C" unicode="C" 
d="M567 487h-124q-14 119 -124 119q-126 0 -126 -151v-201q0 -151 126 -151q110 0 124 119h124q-8 -112 -72 -174.5t-176 -62.5q-120 0 -184.5 71t-64.5 198v201q0 127 64.5 198t184.5 71q112 0 176 -62.5t72 -174.5z" />
    <glyph glyph-name="D" unicode="D" 
d="M80 0v709h237q121 0 187.5 -71.5t66.5 -197.5v-171q0 -126 -66.5 -197.5t-187.5 -71.5h-237zM317 591h-115v-473h115q131 0 131 151v171q0 151 -131 151z" />
    <glyph glyph-name="E" unicode="E" 
d="M558 0h-474v709h474v-116h-352v-168h301v-116h-301v-193h352v-116z" />
    <glyph glyph-name="F" unicode="F" 
d="M578 593h-372v-168h322v-116h-322v-309h-122v709h494v-116z" />
    <glyph glyph-name="G" unicode="G" 
d="M553 487h-124q-14 119 -124 119q-126 0 -126 -151v-201q0 -151 126 -151q129 0 129 151v19h-134v114h256v-387h-117v46q-44 -61 -150 -61q-110 0 -171.5 71.5t-61.5 197.5v201q0 127 64.5 198t184.5 71q112 0 176 -62.5t72 -174.5z" />
    <glyph glyph-name="H" unicode="H" 
d="M547 709v-709h-122v312h-230v-312h-122v709h122v-283h230v283h122z" />
    <glyph glyph-name="I" unicode="I" 
d="M68 111h181v487h-181v111h484v-111h-181v-487h181v-111h-484v111z" />
    <glyph glyph-name="J" unicode="J" 
d="M270 -15q-107 0 -170 64t-63 176h122q0 -57 28.5 -89.5t82.5 -32.5t82.5 32.5t28.5 89.5v484h122v-484q0 -112 -63 -176t-170 -64z" />
    <glyph glyph-name="K" unicode="K" 
d="M195 709v-376l273 376h150l-224 -288l220 -421h-140l-161 316l-118 -152v-164h-122v709h122z" />
    <glyph glyph-name="L" unicode="L" 
d="M109 0v709h122v-593h367v-116h-489z" />
    <glyph glyph-name="M" unicode="M" 
d="M425 0v491l-115 -213l-115 213v-491h-122v709h114l123 -228l123 228h114v-709h-122z" />
    <glyph glyph-name="N" unicode="N" 
d="M81 0v709h115l220 -452v452h122v-709h-114l-221 454v-454h-122z" />
    <glyph glyph-name="O" unicode="O" 
d="M564 254q0 -126 -66.5 -197.5t-187.5 -71.5t-187.5 71.5t-66.5 197.5v201q0 126 66.5 197.5t187.5 71.5t187.5 -71.5t66.5 -197.5v-201zM179 455v-201q0 -151 131 -151t131 151v201q0 151 -131 151t-131 -151z" />
    <glyph glyph-name="P" unicode="P" 
d="M370 294h-163v-294h-122v709h285q110 0 169.5 -54.5t59.5 -153.5t-59.5 -153t-169.5 -54zM360 593h-153v-183h153q116 0 116 91q0 92 -116 92z" />
    <glyph glyph-name="Q" unicode="Q" 
d="M405 -115l-39 105q-30 -5 -56 -5q-121 0 -187.5 71.5t-66.5 197.5v201q0 126 66.5 197.5t187.5 71.5t187.5 -71.5t66.5 -197.5v-201q0 -151 -93 -221l56 -148h-122zM360 330l62 -167q19 35 19 91v201q0 151 -131 151t-131 -151v-201q0 -151 131 -151h13l-85 227h122z" />
    <glyph glyph-name="R" unicode="R" 
d="M445 0l-121 294h-117v-294h-122v709h255q110 0 169.5 -54.5t59.5 -153.5q0 -148 -126 -191l131 -310h-129zM330 593h-123v-183h123q116 0 116 91q0 92 -116 92z" />
    <glyph glyph-name="S" unicode="S" 
d="M559 193q0 -101 -72 -154.5t-178 -53.5q-73 0 -127 25.5t-79 61.5t-39 72t-16 62l-1 25h124q0 -5 1 -14t8.5 -31t21 -39t43 -31t69.5 -14q58 0 90 23t32 66q0 35 -25.5 57.5t-82.5 40.5l-77 25q-83 27 -125 74.5t-42 129.5q0 96 63 151t169 55q50 0 90.5 -13t65.5 -34.5
t43.5 -47t27 -50.5t13.5 -46.5t6 -34.5v-13h-124q0 5 -0.5 13t-7.5 29t-18.5 37.5t-37.5 29.5t-61 13q-106 0 -106 -85q0 -35 23.5 -55.5t66.5 -34.5l77 -24q92 -28 138.5 -79t46.5 -136z" />
    <glyph glyph-name="T" unicode="T" 
d="M14 593v116h592v-116h-235v-593h-122v593h-235z" />
    <glyph glyph-name="U" unicode="U" 
d="M425 709h122v-465q0 -259 -237 -259t-237 259v465h122v-465q0 -75 25.5 -108t89.5 -33t89.5 33t25.5 108v465z" />
    <glyph glyph-name="V" unicode="V" 
d="M592 709l-221 -709h-122l-221 709h126l156 -526l156 526h126z" />
    <glyph glyph-name="W" unicode="W" 
d="M415 216l25 493h122l-30 -709h-114l-108 223l-108 -223h-114l-30 709h122l25 -493l105 215z" />
    <glyph glyph-name="X" unicode="X" 
d="M449 0l-139 272l-139 -272h-145l192 349l-192 360h145l139 -281l139 281h145l-192 -360l192 -349h-145z" />
    <glyph glyph-name="Y" unicode="Y" 
d="M371 299v-188h161v-111h-444v111h161v188l-217 410h140l138 -283l138 283h140z" />
    <glyph glyph-name="Z" unicode="Z" 
d="M549 709v-123l-341 -470h344v-116h-484v123l340 470h-334v116h475z" />
    <glyph glyph-name="bracketleft" unicode="[" 
d="M328 -7h144v-112h-262v881h262v-112h-144v-657z" />
    <glyph glyph-name="backslash" unicode="\" 
d="M451 0l-419 709h132l419 -709h-132z" />
    <glyph glyph-name="bracketright" unicode="]" 
d="M148 -7h144v657h-144v112h262v-881h-262v112z" />
    <glyph glyph-name="asciicircum" unicode="^" 
d="M175 261h-123l199 448h118l199 -448h-123l-135 312z" />
    <glyph glyph-name="underscore" unicode="_" 
d="M40 -110v110h540v-110h-540z" />
    <glyph glyph-name="grave" unicode="`" 
d="M438 553l-256 77v115l256 -87v-105z" />
    <glyph glyph-name="a" unicode="a" 
d="M409 0v49q-45 -64 -154 -64q-82 0 -130.5 39.5t-48.5 116.5q0 130 184 158l68 10q26 4 39 7.5t24.5 14.5t11.5 30q0 30 -22.5 47.5t-67.5 17.5q-32 0 -56 -9t-34.5 -22t-17 -26.5t-7.5 -22.5v-9h-116q0 8 1.5 21t14 46.5t34 59t69 46.5t111.5 21q106 0 157 -49t51 -135
v-347h-111zM275 90q60 0 94 31t34 89v19q-20 -10 -57 -15l-68 -10q-42 -6 -62 -18t-20 -39q0 -57 79 -57z" />
    <glyph glyph-name="b" unicode="b" 
d="M563 242q0 -114 -56.5 -185.5t-166.5 -71.5q-97 0 -139 65v-50h-112v722h118v-247q44 56 133 56q110 0 166.5 -71.5t56.5 -185.5v-32zM325 421q-118 0 -118 -132v-55q0 -139 118 -139q119 0 119 146v34q0 146 -119 146z" />
    <glyph glyph-name="c" unicode="c" 
d="M537 337h-120q-15 84 -104 84q-116 0 -116 -146v-34q0 -146 116 -146q89 0 104 84h120q-9 -86 -68 -140t-156 -54q-112 0 -173.5 72t-61.5 185v32q0 113 61.5 185t173.5 72q97 0 156 -54t68 -140z" />
    <glyph glyph-name="d" unicode="d" 
d="M57 242v32q0 114 56.5 185.5t166.5 71.5q89 0 133 -56v247h118v-722h-112v50q-42 -65 -139 -65q-110 0 -166.5 71.5t-56.5 185.5zM413 234v52q0 135 -118 135q-119 0 -119 -146v-34q0 -146 119 -146q118 0 118 139z" />
    <glyph glyph-name="e" unicode="e" 
d="M72 274q0 114 61 185.5t177 71.5q115 0 171.5 -71t56.5 -186v-61h-348q4 -54 33.5 -86t85.5 -32q78 0 99 64h122q-14 -80 -70.5 -127t-150.5 -47q-116 0 -176.5 71.5t-60.5 185.5v32zM309 424q-109 0 -118 -112h228q-9 112 -110 112z" />
    <glyph glyph-name="f" unicode="f" 
d="M60 404v107h170v30q0 94 58 149.5t163 55.5q34 0 63 -4t42 -8l12 -3v-110q-59 15 -117 15q-53 0 -78 -23t-25 -72v-30h224v-107h-224v-404h-118v404h-170z" />
    <glyph glyph-name="g" unicode="g" 
d="M554 640h12v-111h-11q-60 0 -60 -62v-14q29 -43 29 -103q0 -89 -57 -135t-147 -46h-24q-38 0 -71 9q-28 -8 -28 -38q0 -42 52 -42h119q205 0 205 -165q0 -81 -58 -128t-170 -47h-50q-219 0 -219 152q0 71 58 111q-43 36 -43 96q0 68 52 103q-51 46 -51 130q0 89 57 135
t147 46h24q41 0 80 -11q22 120 154 120zM360 -9h-128q-47 -13 -47 -61q0 -65 109 -65h46q63 0 90.5 15.5t27.5 49.5q0 33 -22.5 47t-75.5 14zM321 428h-26q-47 0 -70 -18.5t-23 -59.5t23 -59.5t70 -18.5h26q47 0 70 18.5t23 59.5t-23 59.5t-70 18.5z" />
    <glyph glyph-name="h" unicode="h" 
d="M87 0v722h117v-248q44 56 142 56q88 0 138.5 -55.5t50.5 -149.5v-325h-117v311q0 55 -27.5 85.5t-74.5 30.5t-79.5 -29.5t-32.5 -84.5v-313h-117z" />
    <glyph glyph-name="i" unicode="i" 
d="M93 107h184v302h-150v107h268v-409h185v-107h-487v107zM240 676q0 36 25.5 62t62.5 26q36 0 61.5 -26t25.5 -62q0 -37 -25.5 -62t-61.5 -25q-37 0 -62.5 25t-25.5 62z" />
    <glyph glyph-name="j" unicode="j" 
d="M420 516v-481q0 -121 -63.5 -184t-179.5 -63q-26 0 -53 3t-41 7l-14 3v112q47 -15 108 -15q68 0 96.5 30t28.5 107v374h-234v107h352zM270 676q0 36 25.5 62t62.5 26q36 0 61.5 -26t25.5 -62q0 -37 -25.5 -62t-61.5 -25q-37 0 -62.5 25t-25.5 62z" />
    <glyph glyph-name="k" unicode="k" 
d="M233 723v-441l197 229h155l-186 -200l190 -311h-140l-132 222l-84 -91v-131h-118v723h118z" />
    <glyph glyph-name="l" unicode="l" 
d="M66 107h184v508h-150v107h268v-615h185v-107h-487v107z" />
    <glyph glyph-name="m" unicode="m" 
d="M257 0v369q0 33 -9 47.5t-33 14.5q-48 0 -48 -62v-369h-110v516h95v-26q27 40 88 40q63 0 93 -41q35 41 97 41q68 0 100.5 -37.5t32.5 -119.5v-373h-110v369q0 33 -9 47.5t-33 14.5q-48 0 -48 -62v-369h-106z" />
    <glyph glyph-name="n" unicode="n" 
d="M205 0h-118v516h112v-43q49 57 145 57q90 0 141.5 -55.5t51.5 -149.5v-325h-118v311q0 116 -103 116q-48 0 -79.5 -28.5t-31.5 -85.5v-313z" />
    <glyph glyph-name="o" unicode="o" 
d="M70 274q0 113 62 185t178 72t178 -72t62 -185v-32q0 -113 -62 -185t-178 -72t-178 72t-62 185v32zM189 275v-34q0 -146 121 -146t121 146v34q0 146 -121 146t-121 -146z" />
    <glyph glyph-name="p" unicode="p" 
d="M563 274v-32q0 -114 -56.5 -185.5t-166.5 -71.5q-89 0 -133 56v-206h-118v681h112v-50q43 65 139 65q110 0 166.5 -71.5t56.5 -185.5zM325 95q119 0 119 146v34q0 146 -119 146q-118 0 -118 -132v-55q0 -139 118 -139z" />
    <glyph glyph-name="q" unicode="q" 
d="M57 274q0 114 56.5 185.5t166.5 71.5q96 0 139 -65v50h112v-681h-118v206q-44 -56 -133 -56q-110 0 -166.5 71.5t-56.5 185.5v32zM413 282q0 139 -118 139q-119 0 -119 -146v-34q0 -146 119 -146q118 0 118 139v48z" />
    <glyph glyph-name="r" unicode="r" 
d="M74 516h189v-47q42 56 132 56q86 0 132 -50t50 -138h-119q-10 80 -88 80q-41 0 -65 -24.5t-24 -71.5v-214h216v-107h-423v107h89v302h-89v107z" />
    <glyph glyph-name="s" unicode="s" 
d="M533 150q0 -80 -60.5 -122.5t-159.5 -42.5q-68 0 -118 21t-73 50.5t-36 59t-14 50.5l-2 21h117q0 -4 1 -10.5t7.5 -23t18.5 -29.5t38 -23.5t61 -10.5q100 0 100 57q0 22 -15 33t-52 17l-91 15q-154 25 -154 156q0 76 57 119.5t150 43.5q47 0 84.5 -10.5t60.5 -28t40 -38
t25 -41t12.5 -38t5.5 -27.5v-11h-116q0 4 -0.5 10t-6.5 21t-16.5 27t-34 21.5t-54.5 9.5q-88 0 -88 -54q0 -40 59 -50l91 -15q163 -27 163 -157z" />
    <glyph glyph-name="t" unicode="t" 
d="M44 404v107h140v106l118 118v-224h244v-107h-244v-185q0 -66 26 -92.5t89 -26.5q35 0 67.5 8t47.5 16l14 7v-111q-46 -30 -140 -30q-222 0 -222 224v190h-140z" />
    <glyph glyph-name="u" unicode="u" 
d="M412 516h118v-516h-112v43q-50 -57 -141 -57q-90 0 -141.5 55.5t-51.5 149.5v325h118v-311q0 -116 103 -116q48 0 77.5 28t29.5 86v313z" />
    <glyph glyph-name="v" unicode="v" 
d="M373 0h-123l-207 516h131l138 -369l138 369h131z" />
    <glyph glyph-name="w" unicode="w" 
d="M310 181l-92 -181h-115l-28 516h110l14 -352l111 222l111 -222l14 352h110l-28 -516h-115z" />
    <glyph glyph-name="x" unicode="x" 
d="M426 0l-117 208l-117 -208h-141l160 264l-153 252h141l110 -197l110 197h141l-153 -252l160 -264h-141z" />
    <glyph glyph-name="y" unicode="y" 
d="M373 0l-18 -45q-39 -96 -89 -133t-141 -37q-17 0 -34.5 2.5t-26.5 4.5l-8 2v109q29 -10 75 -10q42 0 66.5 16.5t40.5 59.5l12 31l-207 516h131l138 -369l138 369h131z" />
    <glyph glyph-name="z" unicode="z" 
d="M98 409v107h424v-103l-272 -306h275v-107h-430v102l273 307h-270z" />
    <glyph glyph-name="braceleft" unicode="{" 
d="M178 266v111q76 3 76 73v123q0 189 179 189h36v-112h-25q-41 0 -56.5 -17t-15.5 -60v-119q0 -115 -83 -130v-4q83 -18 83 -131v-119q0 -43 15.5 -60t56.5 -17h25v-112h-36q-179 0 -179 189v123q0 70 -76 73z" />
    <glyph glyph-name="bar" unicode="|" 
d="M365 -114h-110v871h110v-871z" />
    <glyph glyph-name="braceright" unicode="}" 
d="M442 377v-111q-76 -3 -76 -73v-123q0 -189 -179 -189h-36v112h25q41 0 56.5 17t15.5 60v119q0 113 83 131v4q-83 16 -83 130v119q0 43 -15.5 60t-56.5 17h-25v112h36q179 0 179 -189v-123q0 -70 76 -73z" />
    <glyph glyph-name="asciitilde" unicode="~" 
d="M185 218q-39 0 -71 -10t-44 -20l-13 -11v123q5 4 14 10t41.5 16t69.5 10q55 0 121.5 -20.5t125.5 -20.5q39 0 72.5 10.5t47.5 20.5l14 10v-123q-47 -36 -131 -36q-61 0 -127.5 20.5t-119.5 20.5z" />
    <glyph glyph-name="uni00A0" unicode="&#xa0;" 
 />
    <glyph glyph-name="exclamdown" unicode="&#xa1;" 
d="M359 281l22 -474h-143l23 474h98zM216 427q0 38 27.5 65.5t66.5 27.5q38 0 65.5 -27.5t27.5 -65.5q0 -39 -27.5 -66.5t-65.5 -27.5q-39 0 -66.5 27.5t-27.5 66.5z" />
    <glyph glyph-name="cent" unicode="&#xa2;" 
d="M259 -87v180q-86 18 -132.5 86t-46.5 166v32q0 97 46.5 165t132.5 86v171h110v-170q74 -15 118 -66t52 -123h-120q-15 84 -104 84q-116 0 -116 -146v-34q0 -146 116 -146q89 0 104 84h120q-8 -73 -52 -124t-118 -65v-180h-110z" />
    <glyph glyph-name="sterling" unicode="&#xa3;" 
d="M83 385h56q-27 81 -27 131q0 96 57.5 152t155.5 56q45 0 81.5 -12.5t59 -32.5t39 -44t24 -48.5t12 -44.5t5.5 -32v-13h-124q0 4 -0.5 11.5t-6 26.5t-14.5 33t-29 26t-47 12q-45 0 -67.5 -24t-22.5 -65q0 -56 29 -125l3 -7h202v-116h-154l64 -153h177v-116h-473v116h164
l-63 153h-101v116z" />
    <glyph glyph-name="yen" unicode="&#xa5;" 
d="M118 214h131v60h-131v109h123l-197 326h143l123 -221l123 221h143l-198 -326h124v-109h-131v-60h131v-109h-131v-105h-122v105h-131v109z" />
    <glyph glyph-name="brokenbar" unicode="&#xa6;" 
d="M365 450h-110v309h110v-309zM365 -50h-110v309h110v-309z" />
    <glyph glyph-name="section" unicode="&#xa7;" 
d="M533 164q0 -80 -63 -141q29 -46 29 -102q0 -77 -52 -119.5t-139 -42.5q-57 0 -99 19.5t-61 46.5t-30 54.5t-12 46.5l-2 20h116q0 -3 0.5 -8.5t5.5 -20t13.5 -25t26.5 -19.5t42 -9q72 0 72 57q0 19 -12.5 34.5t-39.5 38.5l-144 124q-53 46 -75 86.5t-22 99.5q0 82 63 140
q-29 45 -29 103q0 77 52 119.5t139 42.5q57 0 99 -19.5t61 -46.5t30 -54.5t12 -46.5l2 -20h-116q0 3 -0.5 8.5t-5.5 20t-13.5 25t-26.5 19.5t-42 9q-72 0 -72 -57q0 -19 12.5 -34.5t39.5 -38.5l144 -124q53 -46 75 -86.5t22 -99.5zM248 231l144 -124q21 23 21 55
q0 39 -41 75l-144 124q-21 -21 -21 -55q0 -39 41 -75z" />
    <glyph glyph-name="dieresis" unicode="&#xa8;" 
d="M138 645q0 31 22 53.5t54 22.5t54 -22.5t22 -53.5t-22 -53.5t-54 -22.5t-54 22.5t-22 53.5zM329 645q0 31 22.5 53.5t53.5 22.5t53.5 -22.5t22.5 -53.5t-22.5 -53.5t-53.5 -22.5t-53.5 22.5t-22.5 53.5z" />
    <glyph glyph-name="copyright" unicode="&#xa9;" 
d="M178 353q0 63 34.5 103t98.5 40q35 0 61.5 -12t38.5 -29.5t19.5 -35t8.5 -29.5l1 -12h-79q0 2 -0.5 5t-3 10.5t-7 13.5t-15 11t-24.5 5q-55 0 -55 -70t55 -70q22 0 34.5 11.5t14.5 22.5l1 11h79q0 -5 -1 -13t-8.5 -28t-19.5 -35.5t-38.5 -28.5t-61.5 -13q-64 0 -98.5 40
t-34.5 103zM116 353q0 -88 53 -142t141 -54t141 54t53 142t-53 142t-141 54t-141 -54t-53 -142zM44 353q0 118 74 193t192 75t192 -75t74 -193t-74 -193t-192 -75t-192 75t-74 193z" />
    <glyph glyph-name="ordfeminine" unicode="&#xaa;" 
d="M383 334v26q-37 -35 -104 -35q-62 0 -97 29.5t-35 86.5q0 97 135 118l48 8q48 7 48 31q0 41 -58 41q-33 0 -52 -16t-21 -32l-2 -16h-96q0 3 0.5 8.5t3.5 21t9 29.5t19 31t30 29.5t45 21t63 8.5q154 0 154 -136v-254h-90zM293 410q82 0 85 82v5q-15 -6 -41 -10l-42 -7
q-52 -8 -52 -36q0 -34 50 -34z" />
    <glyph glyph-name="guillemotleft" unicode="&#xab;" 
d="M199 0l-143 258l143 258h135l-145 -258l145 -258h-135zM428 0l-143 258l143 258h135l-145 -258l145 -258h-135z" />
    <glyph glyph-name="logicalnot" unicode="&#xac;" 
d="M52 203v110h516v-277h-110v167h-406z" />
    <glyph glyph-name="registered" unicode="&#xae;" 
d="M44 353q0 118 74 193t192 75t192 -75t74 -193t-74 -193t-192 -75t-192 75t-74 193zM116 353q0 -88 53 -142t141 -54t141 54t53 142t-53 142t-141 54t-141 -54t-53 -142zM354 215l-44 92h-29v-92h-74v276h120q46 0 73 -25t27 -67q0 -55 -45 -79l54 -105h-82zM281 376h44
q25 0 25 23t-25 23h-44v-46z" />
    <glyph glyph-name="macron" unicode="&#xaf;" 
d="M140 599v110h340v-110h-340z" />
    <glyph glyph-name="degree" unicode="&#xb0;" 
d="M480 558q0 -73 -48.5 -120.5t-121.5 -47.5q-72 0 -120.5 47.5t-48.5 120.5t48.5 120.5t120.5 47.5q73 0 121.5 -47.5t48.5 -120.5zM380 558q0 32 -19.5 52t-50.5 20q-30 0 -49.5 -20t-19.5 -52t19.5 -52t49.5 -20q31 0 50.5 20t19.5 52z" />
    <glyph glyph-name="plusminus" unicode="&#xb1;" 
d="M52 371v110h203v203h110v-203h203v-110h-203v-203h-110v203h-203zM52 0v110h516v-110h-516z" />
    <glyph glyph-name="twosuperior" unicode="&#xb2;" 
d="M434 398h-247v70l130 104q24 20 24 37q0 11 -8 19t-24 8t-25 -10t-10 -20l-1 -10h-87q0 5 1 13t7.5 29t18.5 37t38 29t61 13q56 0 87 -28.5t31 -75.5q0 -55 -53 -96l-50 -39h107v-80z" />
    <glyph glyph-name="threesuperior" unicode="&#xb3;" 
d="M182 502h90q0 -3 1 -8t11.5 -13.5t28.5 -8.5q15 0 24.5 6t9.5 15q0 22 -37 22h-55v78h55q32 0 32 22q0 21 -29 21q-17 0 -27 -7.5t-11 -14.5l-1 -8h-90q0 5 1 12t7.5 26.5t19 34t39 26.5t62.5 12q51 0 84 -27t33 -74q0 -36 -25 -61q30 -23 30 -63q0 -47 -35 -74t-87 -27
q-37 0 -64 11.5t-39 27.5t-19 32.5t-8 27.5z" />
    <glyph glyph-name="acute" unicode="&#xb4;" 
d="M438 630l-256 -77v105l256 87v-115z" />
    <glyph glyph-name="mu" unicode="&#xb5;" 
d="M413 516h118v-516h-112v43q-49 -57 -141 -57q-39 0 -75 13v-165h-118v682h118v-311q0 -116 103 -116q48 0 77.5 28t29.5 86v313z" />
    <glyph glyph-name="paragraph" unicode="&#xb6;" 
d="M240 709h278v-834h-106v727h-66v-727h-106v457q-80 0 -132.5 51.5t-52.5 137.5t52.5 137t132.5 51z" />
    <glyph glyph-name="periodcentered" unicode="&#xb7;" 
d="M216 258q0 39 27.5 66.5t66.5 27.5q38 0 65.5 -27.5t27.5 -66.5q0 -38 -27.5 -65.5t-65.5 -27.5q-39 0 -66.5 27.5t-27.5 65.5z" />
    <glyph glyph-name="cedilla" unicode="&#xb8;" 
d="M382 4l-28 -161h-116l33 161h111z" />
    <glyph glyph-name="onesuperior" unicode="&#xb9;" 
d="M199 477h68v129l-68 -35v90l88 48h67v-232h67v-80h-222v80z" />
    <glyph glyph-name="ordmasculine" unicode="&#xba;" 
d="M134 536q0 84 44.5 136t131.5 52q86 0 131 -52.5t45 -135.5v-22q0 -84 -44.5 -136t-131.5 -52q-86 0 -131 52t-45 136v22zM230 537v-24q0 -98 80 -98t80 98v24q0 98 -80 98t-80 -98z" />
    <glyph glyph-name="guillemotright" unicode="&#xbb;" 
d="M563 258l-143 -258h-135l145 258l-145 258h135zM334 258l-143 -258h-135l145 258l-145 258h135z" />
    <glyph glyph-name="onequarter" unicode="&#xbc;" 
d="M418 0v49h-155v68l146 196h97v-185h59v-79h-59v-49h-88zM57 128v108l506 341v-108zM214 709v-232h67v-80h-222v80h68v129l-68 -35v90l88 48h67zM365 128h53v71z" />
    <glyph glyph-name="onehalf" unicode="&#xbd;" 
d="M574 0h-247v70l130 104q24 20 24 37q0 11 -8 19t-24 8t-25 -10t-10 -20l-1 -10h-87q0 5 1 13t7.5 29t18.5 37t38 29t61 13q56 0 87 -28.5t31 -75.5q0 -55 -53 -96l-50 -39h107v-80zM57 128v108l506 341v-108zM214 709v-232h67v-80h-222v80h68v129l-68 -35v90l88 48h67z
" />
    <glyph glyph-name="threequarters" unicode="&#xbe;" 
d="M418 0v49h-155v68l146 196h97v-185h59v-79h-59v-49h-88zM50 502h90q0 -3 1 -8t11.5 -13.5t28.5 -8.5q15 0 24.5 6t9.5 15q0 22 -37 22h-55v78h55q32 0 32 22q0 21 -29 21q-17 0 -27 -7.5t-11 -14.5l-1 -8h-90q0 5 1 12t7.5 26.5t19 34t39 26.5t62.5 12q51 0 84 -27
t33 -74q0 -36 -25 -61q30 -23 30 -63q0 -47 -35 -74t-87 -27q-37 0 -64 11.5t-39 27.5t-19 32.5t-8 27.5zM57 128v108l506 341v-108zM365 128h53v71z" />
    <glyph glyph-name="questiondown" unicode="&#xbf;" 
d="M343 315v-161l-65 -54q-57 -48 -57 -98q0 -42 25 -67t71 -25q31 0 53 11t32.5 26.5t16.5 31.5t7 27v11h124q0 -5 -0.5 -13t-5 -31.5t-12.5 -44.5t-25.5 -47t-41 -44.5t-62 -31.5t-86.5 -13q-102 0 -160.5 56t-58.5 154q0 53 22.5 99t82.5 96zM412 427q0 -39 -27.5 -66.5
t-66.5 -27.5q-38 0 -65.5 27.5t-27.5 66.5q0 38 27.5 65.5t65.5 27.5q39 0 66.5 -27.5t27.5 -65.5z" />
    <glyph glyph-name="Agrave" unicode="&#xc0;" 
d="M371 709l221 -709h-126l-47 159h-218l-47 -159h-126l221 709h122zM310 525l-75 -252h150zM438 746l-256 77v115l256 -87v-105z" />
    <glyph glyph-name="Aacute" unicode="&#xc1;" 
d="M371 709l221 -709h-126l-47 159h-218l-47 -159h-126l221 709h122zM310 525l-75 -252h150zM438 823l-256 -77v105l256 87v-115z" />
    <glyph glyph-name="Acircumflex" unicode="&#xc2;" 
d="M371 709l221 -709h-126l-47 159h-218l-47 -159h-126l221 709h122zM310 525l-75 -252h150zM312 824l-154 -84v111l154 84l149 -84v-111z" />
    <glyph glyph-name="Atilde" unicode="&#xc3;" 
d="M371 709l221 -709h-126l-47 159h-218l-47 -159h-126l221 709h122zM310 525l-75 -252h150zM401 775q-40 0 -95 17.5t-84 17.5q-28 0 -52.5 -8.5t-35.5 -17.5l-10 -9v113q35 30 95 30q40 0 95.5 -17.5t83.5 -17.5t52.5 8.5t35.5 17.5l10 9v-113q-35 -30 -95 -30z" />
    <glyph glyph-name="Adieresis" unicode="&#xc4;" 
d="M371 709l221 -709h-126l-47 159h-218l-47 -159h-126l221 709h122zM310 525l-75 -252h150zM138 838q0 32 22 54t54 22t54 -22t22 -54t-22 -54t-54 -22t-54 22t-22 54zM329 838q0 32 22.5 54t53.5 22t53.5 -22t22.5 -54t-22.5 -54t-53.5 -22t-53.5 22t-22.5 54z" />
    <glyph glyph-name="Aring" unicode="&#xc5;" 
d="M371 709l221 -709h-126l-47 159h-218l-47 -159h-126l221 709h122zM310 525l-75 -252h150zM192 873q0 49 34.5 83.5t83.5 34.5t83.5 -34.5t34.5 -83.5t-34.5 -83.5t-83.5 -34.5t-83.5 34.5t-34.5 83.5zM266 873q0 -18 13 -31t31 -13t31 13t13 31t-13 31t-31 13t-31 -13
t-13 -31z" />
    <glyph glyph-name="AE" unicode="&#xc6;" 
d="M572 0h-294v159h-113l-39 -159h-126l174 709h398v-116h-172v-168h141v-116h-141v-193h172v-116zM272 593l-79 -320h85v320h-6z" />
    <glyph glyph-name="Ccedilla" unicode="&#xc7;" 
d="M567 487h-124q-14 119 -124 119q-126 0 -126 -151v-201q0 -151 126 -151q110 0 124 119h124q-8 -96 -55.5 -156t-132.5 -75l-25 -148h-116l30 146q-96 14 -147 83t-51 182v201q0 127 64.5 198t184.5 71q112 0 176 -62.5t72 -174.5z" />
    <glyph glyph-name="Egrave" unicode="&#xc8;" 
d="M558 0h-474v709h474v-116h-352v-168h301v-116h-301v-193h352v-116zM438 746l-256 77v115l256 -87v-105z" />
    <glyph glyph-name="Eacute" unicode="&#xc9;" 
d="M558 0h-474v709h474v-116h-352v-168h301v-116h-301v-193h352v-116zM438 823l-256 -77v105l256 87v-115z" />
    <glyph glyph-name="Ecircumflex" unicode="&#xca;" 
d="M558 0h-474v709h474v-116h-352v-168h301v-116h-301v-193h352v-116zM312 824l-154 -84v111l154 84l149 -84v-111z" />
    <glyph glyph-name="Edieresis" unicode="&#xcb;" 
d="M558 0h-474v709h474v-116h-352v-168h301v-116h-301v-193h352v-116zM138 838q0 32 22 54t54 22t54 -22t22 -54t-22 -54t-54 -22t-54 22t-22 54zM329 838q0 32 22.5 54t53.5 22t53.5 -22t22.5 -54t-22.5 -54t-53.5 -22t-53.5 22t-22.5 54z" />
    <glyph glyph-name="Igrave" unicode="&#xcc;" 
d="M68 111h181v487h-181v111h484v-111h-181v-487h181v-111h-484v111zM438 746l-256 77v115l256 -87v-105z" />
    <glyph glyph-name="Iacute" unicode="&#xcd;" 
d="M68 111h181v487h-181v111h484v-111h-181v-487h181v-111h-484v111zM438 823l-256 -77v105l256 87v-115z" />
    <glyph glyph-name="Icircumflex" unicode="&#xce;" 
d="M68 111h181v487h-181v111h484v-111h-181v-487h181v-111h-484v111zM312 824l-154 -84v111l154 84l149 -84v-111z" />
    <glyph glyph-name="Idieresis" unicode="&#xcf;" 
d="M68 111h181v487h-181v111h484v-111h-181v-487h181v-111h-484v111zM138 838q0 32 22 54t54 22t54 -22t22 -54t-22 -54t-54 -22t-54 22t-22 54zM329 838q0 32 22.5 54t53.5 22t53.5 -22t22.5 -54t-22.5 -54t-53.5 -22t-53.5 22t-22.5 54z" />
    <glyph glyph-name="Eth" unicode="&#xd0;" 
d="M73 0v299h-56v110h56v300h237q121 0 187.5 -71.5t66.5 -197.5v-171q0 -126 -66.5 -197.5t-187.5 -71.5h-237zM310 591h-115v-182h142v-110h-142v-181h115q131 0 131 151v171q0 151 -131 151z" />
    <glyph glyph-name="Ntilde" unicode="&#xd1;" 
d="M81 0v709h115l220 -452v452h122v-709h-114l-221 454v-454h-122zM401 775q-40 0 -95 17.5t-84 17.5q-28 0 -52.5 -8.5t-35.5 -17.5l-10 -9v113q35 30 95 30q40 0 95.5 -17.5t83.5 -17.5t52.5 8.5t35.5 17.5l10 9v-113q-35 -30 -95 -30z" />
    <glyph glyph-name="Ograve" unicode="&#xd2;" 
d="M564 254q0 -126 -66.5 -197.5t-187.5 -71.5t-187.5 71.5t-66.5 197.5v201q0 126 66.5 197.5t187.5 71.5t187.5 -71.5t66.5 -197.5v-201zM179 455v-201q0 -151 131 -151t131 151v201q0 151 -131 151t-131 -151zM438 746l-256 77v115l256 -87v-105z" />
    <glyph glyph-name="Oacute" unicode="&#xd3;" 
d="M564 254q0 -126 -66.5 -197.5t-187.5 -71.5t-187.5 71.5t-66.5 197.5v201q0 126 66.5 197.5t187.5 71.5t187.5 -71.5t66.5 -197.5v-201zM179 455v-201q0 -151 131 -151t131 151v201q0 151 -131 151t-131 -151zM438 823l-256 -77v105l256 87v-115z" />
    <glyph glyph-name="Ocircumflex" unicode="&#xd4;" 
d="M564 254q0 -126 -66.5 -197.5t-187.5 -71.5t-187.5 71.5t-66.5 197.5v201q0 126 66.5 197.5t187.5 71.5t187.5 -71.5t66.5 -197.5v-201zM179 455v-201q0 -151 131 -151t131 151v201q0 151 -131 151t-131 -151zM312 824l-154 -84v111l154 84l149 -84v-111z" />
    <glyph glyph-name="Otilde" unicode="&#xd5;" 
d="M564 254q0 -126 -66.5 -197.5t-187.5 -71.5t-187.5 71.5t-66.5 197.5v201q0 126 66.5 197.5t187.5 71.5t187.5 -71.5t66.5 -197.5v-201zM179 455v-201q0 -151 131 -151t131 151v201q0 151 -131 151t-131 -151zM401 775q-40 0 -95 17.5t-84 17.5q-28 0 -52.5 -8.5
t-35.5 -17.5l-10 -9v113q35 30 95 30q40 0 95.5 -17.5t83.5 -17.5t52.5 8.5t35.5 17.5l10 9v-113q-35 -30 -95 -30z" />
    <glyph glyph-name="Odieresis" unicode="&#xd6;" 
d="M564 254q0 -126 -66.5 -197.5t-187.5 -71.5t-187.5 71.5t-66.5 197.5v201q0 126 66.5 197.5t187.5 71.5t187.5 -71.5t66.5 -197.5v-201zM179 455v-201q0 -151 131 -151t131 151v201q0 151 -131 151t-131 -151zM138 838q0 32 22 54t54 22t54 -22t22 -54t-22 -54t-54 -22
t-54 22t-22 54zM329 838q0 32 22.5 54t53.5 22t53.5 -22t22.5 -54t-22.5 -54t-53.5 -22t-53.5 22t-22.5 54z" />
    <glyph glyph-name="multiply" unicode="&#xd7;" 
d="M145 15l-78 78l165 165l-165 165l78 78l165 -165l165 165l78 -78l-165 -165l165 -165l-78 -78l-165 165z" />
    <glyph glyph-name="Oslash" unicode="&#xd8;" 
d="M564 254q0 -126 -66.5 -197.5t-187.5 -71.5q-48 0 -89 12l-20 -52h-112l41 104q-74 71 -74 205v201q0 126 66.5 197.5t187.5 71.5q40 0 82 -10l26 65h112l-45 -115q79 -71 79 -209v-201zM441 455q0 39 -11 72l-165 -419q23 -5 45 -5q131 0 131 151v201zM179 455v-201
q0 -37 7 -62l162 410q-24 4 -38 4q-131 0 -131 -151z" />
    <glyph glyph-name="Ugrave" unicode="&#xd9;" 
d="M425 709h122v-465q0 -259 -237 -259t-237 259v465h122v-465q0 -75 25.5 -108t89.5 -33t89.5 33t25.5 108v465zM438 746l-256 77v115l256 -87v-105z" />
    <glyph glyph-name="Uacute" unicode="&#xda;" 
d="M425 709h122v-465q0 -259 -237 -259t-237 259v465h122v-465q0 -75 25.5 -108t89.5 -33t89.5 33t25.5 108v465zM438 823l-256 -77v105l256 87v-115z" />
    <glyph glyph-name="Ucircumflex" unicode="&#xdb;" 
d="M425 709h122v-465q0 -259 -237 -259t-237 259v465h122v-465q0 -75 25.5 -108t89.5 -33t89.5 33t25.5 108v465zM312 824l-154 -84v111l154 84l149 -84v-111z" />
    <glyph glyph-name="Udieresis" unicode="&#xdc;" 
d="M425 709h122v-465q0 -259 -237 -259t-237 259v465h122v-465q0 -75 25.5 -108t89.5 -33t89.5 33t25.5 108v465zM138 838q0 32 22 54t54 22t54 -22t22 -54t-22 -54t-54 -22t-54 22t-22 54zM329 838q0 32 22.5 54t53.5 22t53.5 -22t22.5 -54t-22.5 -54t-53.5 -22t-53.5 22
t-22.5 54z" />
    <glyph glyph-name="Yacute" unicode="&#xdd;" 
d="M371 299v-188h161v-111h-444v111h161v188l-217 410h140l138 -283l138 283h140zM438 823l-256 -77v105l256 87v-115z" />
    <glyph glyph-name="Thorn" unicode="&#xde;" 
d="M215 709v-147h143q110 0 169.5 -54.5t59.5 -153.5t-59.5 -153t-169.5 -54h-143v-147h-122v709h122zM348 446h-133v-183h133q116 0 116 91q0 92 -116 92z" />
    <glyph glyph-name="germandbls" unicode="&#xdf;" 
d="M580 146q0 -79 -47.5 -119t-128.5 -40q-48 0 -84 15.5t-52 38t-25.5 45t-10.5 38.5l-1 15h117q0 -5 1.5 -13.5t15.5 -22t39 -13.5q57 0 57 56q0 21 -16.5 38t-40.5 31t-47.5 31t-40 47t-16.5 71q0 30 10.5 55t25.5 41l31 32q16 15 26.5 30.5t10.5 31.5q0 72 -94 72
q-108 0 -108 -134v-492h-118v493q0 122 62.5 182.5t163.5 60.5q100 0 156.5 -50.5t56.5 -134.5q0 -39 -16.5 -69t-35.5 -44t-35.5 -31.5t-16.5 -35.5q0 -17 16.5 -32.5t40.5 -30t47.5 -33t40 -52t16.5 -77.5z" />
    <glyph glyph-name="agrave" unicode="&#xe0;" 
d="M409 0v49q-45 -64 -154 -64q-82 0 -130.5 39.5t-48.5 116.5q0 130 184 158l68 10q26 4 39 7.5t24.5 14.5t11.5 30q0 30 -22.5 47.5t-67.5 17.5q-32 0 -56 -9t-34.5 -22t-17 -26.5t-7.5 -22.5v-9h-116q0 8 1.5 21t14 46.5t34 59t69 46.5t111.5 21q106 0 157 -49t51 -135
v-347h-111zM275 90q60 0 94 31t34 89v19q-20 -10 -57 -15l-68 -10q-42 -6 -62 -18t-20 -39q0 -57 79 -57zM438 553l-256 77v115l256 -87v-105z" />
    <glyph glyph-name="aacute" unicode="&#xe1;" 
d="M409 0v49q-45 -64 -154 -64q-82 0 -130.5 39.5t-48.5 116.5q0 130 184 158l68 10q26 4 39 7.5t24.5 14.5t11.5 30q0 30 -22.5 47.5t-67.5 17.5q-32 0 -56 -9t-34.5 -22t-17 -26.5t-7.5 -22.5v-9h-116q0 8 1.5 21t14 46.5t34 59t69 46.5t111.5 21q106 0 157 -49t51 -135
v-347h-111zM275 90q60 0 94 31t34 89v19q-20 -10 -57 -15l-68 -10q-42 -6 -62 -18t-20 -39q0 -57 79 -57zM438 630l-256 -77v105l256 87v-115z" />
    <glyph glyph-name="acircumflex" unicode="&#xe2;" 
d="M409 0v49q-45 -64 -154 -64q-82 0 -130.5 39.5t-48.5 116.5q0 130 184 158l68 10q26 4 39 7.5t24.5 14.5t11.5 30q0 30 -22.5 47.5t-67.5 17.5q-32 0 -56 -9t-34.5 -22t-17 -26.5t-7.5 -22.5v-9h-116q0 8 1.5 21t14 46.5t34 59t69 46.5t111.5 21q106 0 157 -49t51 -135
v-347h-111zM275 90q60 0 94 31t34 89v19q-20 -10 -57 -15l-68 -10q-42 -6 -62 -18t-20 -39q0 -57 79 -57zM312 631l-154 -84v111l154 84l149 -84v-111z" />
    <glyph glyph-name="atilde" unicode="&#xe3;" 
d="M409 0v49q-45 -64 -154 -64q-82 0 -130.5 39.5t-48.5 116.5q0 130 184 158l68 10q26 4 39 7.5t24.5 14.5t11.5 30q0 30 -22.5 47.5t-67.5 17.5q-32 0 -56 -9t-34.5 -22t-17 -26.5t-7.5 -22.5v-9h-116q0 8 1.5 21t14 46.5t34 59t69 46.5t111.5 21q106 0 157 -49t51 -135
v-347h-111zM275 90q60 0 94 31t34 89v19q-20 -10 -57 -15l-68 -10q-42 -6 -62 -18t-20 -39q0 -57 79 -57zM401 582q-40 0 -95 17.5t-84 17.5q-28 0 -52.5 -8.5t-35.5 -17.5l-10 -9v113q35 30 95 30q40 0 95.5 -17.5t83.5 -17.5t52.5 8.5t35.5 17.5l10 9v-113
q-35 -30 -95 -30z" />
    <glyph glyph-name="adieresis" unicode="&#xe4;" 
d="M409 0v49q-45 -64 -154 -64q-82 0 -130.5 39.5t-48.5 116.5q0 130 184 158l68 10q26 4 39 7.5t24.5 14.5t11.5 30q0 30 -22.5 47.5t-67.5 17.5q-32 0 -56 -9t-34.5 -22t-17 -26.5t-7.5 -22.5v-9h-116q0 8 1.5 21t14 46.5t34 59t69 46.5t111.5 21q106 0 157 -49t51 -135
v-347h-111zM275 90q60 0 94 31t34 89v19q-20 -10 -57 -15l-68 -10q-42 -6 -62 -18t-20 -39q0 -57 79 -57zM138 645q0 31 22 53.5t54 22.5t54 -22.5t22 -53.5t-22 -53.5t-54 -22.5t-54 22.5t-22 53.5zM329 645q0 31 22.5 53.5t53.5 22.5t53.5 -22.5t22.5 -53.5t-22.5 -53.5
t-53.5 -22.5t-53.5 22.5t-22.5 53.5z" />
    <glyph glyph-name="aring" unicode="&#xe5;" 
d="M409 0v49q-45 -64 -154 -64q-82 0 -130.5 39.5t-48.5 116.5q0 130 184 158l68 10q26 4 39 7.5t24.5 14.5t11.5 30q0 30 -22.5 47.5t-67.5 17.5q-32 0 -56 -9t-34.5 -22t-17 -26.5t-7.5 -22.5v-9h-116q0 8 1.5 21t14 46.5t34 59t69 46.5t111.5 21q106 0 157 -49t51 -135
v-347h-111zM275 90q60 0 94 31t34 89v19q-20 -10 -57 -15l-68 -10q-42 -6 -62 -18t-20 -39q0 -57 79 -57zM192 680q0 49 34.5 83.5t83.5 34.5t83.5 -34.5t34.5 -83.5t-34.5 -83.5t-83.5 -34.5t-83.5 34.5t-34.5 83.5zM266 680q0 -18 13 -31t31 -13t31 13t13 31t-13 31
t-31 13t-31 -13t-13 -31z" />
    <glyph glyph-name="ae" unicode="&#xe6;" 
d="M597 217h-230v-52q0 -72 57 -72q53 0 57 60h116q-4 -81 -49 -124.5t-124 -43.5t-125 44q-41 -44 -112 -44q-78 0 -122 37.5t-44 115.5q0 101 100 142l79 32q17 7 26 12t16.5 15t8.5 23v5q0 56 -57 56q-53 0 -57 -60h-116q4 81 49 124.5t124 43.5q70 0 115 -36
q45 36 115 36q82 0 127.5 -47.5t45.5 -133.5v-133zM137 148q0 -61 57 -61q26 0 41.5 21t15.5 57v73h-1l-2 -1l-73 -31q-38 -17 -38 -58zM481 351q0 72 -57 72t-57 -72v-38h114v38z" />
    <glyph glyph-name="ccedilla" unicode="&#xe7;" 
d="M537 337h-120q-15 84 -104 84q-116 0 -116 -146v-34q0 -146 116 -146q89 0 104 84h120q-7 -69 -48 -119t-109 -67l-26 -150h-116l30 146q-92 14 -141 83t-49 170v32q0 113 61.5 185t173.5 72q97 0 156 -54t68 -140z" />
    <glyph glyph-name="egrave" unicode="&#xe8;" 
d="M72 274q0 114 61 185.5t177 71.5q115 0 171.5 -71t56.5 -186v-61h-348q4 -54 33.5 -86t85.5 -32q78 0 99 64h122q-14 -80 -70.5 -127t-150.5 -47q-116 0 -176.5 71.5t-60.5 185.5v32zM309 424q-109 0 -118 -112h228q-9 112 -110 112zM438 553l-256 77v115l256 -87v-105z
" />
    <glyph glyph-name="eacute" unicode="&#xe9;" 
d="M72 274q0 114 61 185.5t177 71.5q115 0 171.5 -71t56.5 -186v-61h-348q4 -54 33.5 -86t85.5 -32q78 0 99 64h122q-14 -80 -70.5 -127t-150.5 -47q-116 0 -176.5 71.5t-60.5 185.5v32zM309 424q-109 0 -118 -112h228q-9 112 -110 112zM438 630l-256 -77v105l256 87v-115z
" />
    <glyph glyph-name="ecircumflex" unicode="&#xea;" 
d="M72 274q0 114 61 185.5t177 71.5q115 0 171.5 -71t56.5 -186v-61h-348q4 -54 33.5 -86t85.5 -32q78 0 99 64h122q-14 -80 -70.5 -127t-150.5 -47q-116 0 -176.5 71.5t-60.5 185.5v32zM309 424q-109 0 -118 -112h228q-9 112 -110 112zM312 631l-154 -84v111l154 84
l149 -84v-111z" />
    <glyph glyph-name="edieresis" unicode="&#xeb;" 
d="M72 274q0 114 61 185.5t177 71.5q115 0 171.5 -71t56.5 -186v-61h-348q4 -54 33.5 -86t85.5 -32q78 0 99 64h122q-14 -80 -70.5 -127t-150.5 -47q-116 0 -176.5 71.5t-60.5 185.5v32zM309 424q-109 0 -118 -112h228q-9 112 -110 112zM138 645q0 31 22 53.5t54 22.5
t54 -22.5t22 -53.5t-22 -53.5t-54 -22.5t-54 22.5t-22 53.5zM329 645q0 31 22.5 53.5t53.5 22.5t53.5 -22.5t22.5 -53.5t-22.5 -53.5t-53.5 -22.5t-53.5 22.5t-22.5 53.5z" />
    <glyph glyph-name="igrave" unicode="&#xec;" 
d="M93 107h184v302h-150v107h268v-409h185v-107h-487v107zM438 553l-256 77v115l256 -87v-105z" />
    <glyph glyph-name="iacute" unicode="&#xed;" 
d="M93 107h184v302h-150v107h268v-409h185v-107h-487v107zM438 630l-256 -77v105l256 87v-115z" />
    <glyph glyph-name="icircumflex" unicode="&#xee;" 
d="M93 107h184v302h-150v107h268v-409h185v-107h-487v107zM312 631l-154 -84v111l154 84l149 -84v-111z" />
    <glyph glyph-name="idieresis" unicode="&#xef;" 
d="M93 107h184v302h-150v107h268v-409h185v-107h-487v107zM138 645q0 31 22 53.5t54 22.5t54 -22.5t22 -53.5t-22 -53.5t-54 -22.5t-54 22.5t-22 53.5zM329 645q0 31 22.5 53.5t53.5 22.5t53.5 -22.5t22.5 -53.5t-22.5 -53.5t-53.5 -22.5t-53.5 22.5t-22.5 53.5z" />
    <glyph glyph-name="eth" unicode="&#xf0;" 
d="M70 242v32q0 113 62 185t178 72q25 0 53 -5l-18 57h-99v85h73l-20 64h118l21 -64h79v-85h-52l59 -177q26 -80 26 -132v-32q0 -113 -62 -185t-178 -72t-178 72t-62 185zM189 275v-34q0 -146 121 -146t121 146v34q0 146 -121 146t-121 -146z" />
    <glyph glyph-name="ntilde" unicode="&#xf1;" 
d="M205 0h-118v516h112v-43q49 57 145 57q90 0 141.5 -55.5t51.5 -149.5v-325h-118v311q0 116 -103 116q-48 0 -79.5 -28.5t-31.5 -85.5v-313zM401 582q-40 0 -95 17.5t-84 17.5q-28 0 -52.5 -8.5t-35.5 -17.5l-10 -9v113q35 30 95 30q40 0 95.5 -17.5t83.5 -17.5t52.5 8.5
t35.5 17.5l10 9v-113q-35 -30 -95 -30z" />
    <glyph glyph-name="ograve" unicode="&#xf2;" 
d="M70 274q0 113 62 185t178 72t178 -72t62 -185v-32q0 -113 -62 -185t-178 -72t-178 72t-62 185v32zM189 275v-34q0 -146 121 -146t121 146v34q0 146 -121 146t-121 -146zM438 553l-256 77v115l256 -87v-105z" />
    <glyph glyph-name="oacute" unicode="&#xf3;" 
d="M70 274q0 113 62 185t178 72t178 -72t62 -185v-32q0 -113 -62 -185t-178 -72t-178 72t-62 185v32zM189 275v-34q0 -146 121 -146t121 146v34q0 146 -121 146t-121 -146zM438 630l-256 -77v105l256 87v-115z" />
    <glyph glyph-name="ocircumflex" unicode="&#xf4;" 
d="M70 274q0 113 62 185t178 72t178 -72t62 -185v-32q0 -113 -62 -185t-178 -72t-178 72t-62 185v32zM189 275v-34q0 -146 121 -146t121 146v34q0 146 -121 146t-121 -146zM312 631l-154 -84v111l154 84l149 -84v-111z" />
    <glyph glyph-name="otilde" unicode="&#xf5;" 
d="M70 274q0 113 62 185t178 72t178 -72t62 -185v-32q0 -113 -62 -185t-178 -72t-178 72t-62 185v32zM189 275v-34q0 -146 121 -146t121 146v34q0 146 -121 146t-121 -146zM401 582q-40 0 -95 17.5t-84 17.5q-28 0 -52.5 -8.5t-35.5 -17.5l-10 -9v113q35 30 95 30
q40 0 95.5 -17.5t83.5 -17.5t52.5 8.5t35.5 17.5l10 9v-113q-35 -30 -95 -30z" />
    <glyph glyph-name="odieresis" unicode="&#xf6;" 
d="M70 274q0 113 62 185t178 72t178 -72t62 -185v-32q0 -113 -62 -185t-178 -72t-178 72t-62 185v32zM189 275v-34q0 -146 121 -146t121 146v34q0 146 -121 146t-121 -146zM138 645q0 31 22 53.5t54 22.5t54 -22.5t22 -53.5t-22 -53.5t-54 -22.5t-54 22.5t-22 53.5zM329 645
q0 31 22.5 53.5t53.5 22.5t53.5 -22.5t22.5 -53.5t-22.5 -53.5t-53.5 -22.5t-53.5 22.5t-22.5 53.5z" />
    <glyph glyph-name="divide" unicode="&#xf7;" 
d="M52 203v110h516v-110h-516zM228 78q0 34 24 58t58 24t58 -24t24 -58t-24 -58t-58 -24t-58 24t-24 58zM228 438q0 34 24 58t58 24t58 -24t24 -58t-24 -58t-58 -24t-58 24t-24 58z" />
    <glyph glyph-name="oslash" unicode="&#xf8;" 
d="M70 274q0 113 62 185t178 72q40 0 73 -9l28 59h111l-50 -106q78 -69 78 -201v-32q0 -113 -62 -185t-178 -72q-36 0 -68 8l-34 -72h-111l55 116q-82 69 -82 205v32zM189 275v-34q0 -55 18 -90l127 268q-16 2 -24 2q-121 0 -121 -146zM431 275q0 50 -15 83l-125 -262
q6 -1 19 -1q121 0 121 146v34z" />
    <glyph glyph-name="ugrave" unicode="&#xf9;" 
d="M412 516h118v-516h-112v43q-50 -57 -141 -57q-90 0 -141.5 55.5t-51.5 149.5v325h118v-311q0 -116 103 -116q48 0 77.5 28t29.5 86v313zM438 553l-256 77v115l256 -87v-105z" />
    <glyph glyph-name="uacute" unicode="&#xfa;" 
d="M412 516h118v-516h-112v43q-50 -57 -141 -57q-90 0 -141.5 55.5t-51.5 149.5v325h118v-311q0 -116 103 -116q48 0 77.5 28t29.5 86v313zM438 630l-256 -77v105l256 87v-115z" />
    <glyph glyph-name="ucircumflex" unicode="&#xfb;" 
d="M412 516h118v-516h-112v43q-50 -57 -141 -57q-90 0 -141.5 55.5t-51.5 149.5v325h118v-311q0 -116 103 -116q48 0 77.5 28t29.5 86v313zM312 631l-154 -84v111l154 84l149 -84v-111z" />
    <glyph glyph-name="udieresis" unicode="&#xfc;" 
d="M412 516h118v-516h-112v43q-50 -57 -141 -57q-90 0 -141.5 55.5t-51.5 149.5v325h118v-311q0 -116 103 -116q48 0 77.5 28t29.5 86v313zM138 645q0 31 22 53.5t54 22.5t54 -22.5t22 -53.5t-22 -53.5t-54 -22.5t-54 22.5t-22 53.5zM329 645q0 31 22.5 53.5t53.5 22.5
t53.5 -22.5t22.5 -53.5t-22.5 -53.5t-53.5 -22.5t-53.5 22.5t-22.5 53.5z" />
    <glyph glyph-name="yacute" unicode="&#xfd;" 
d="M581 516l-226 -561q-39 -96 -89 -133t-141 -37q-17 0 -34.5 2.5t-26.5 4.5l-8 2v109q29 -10 75 -10q42 0 66.5 16.5t40.5 59.5l12 31l-207 516h131l138 -369l138 369h131zM438 630l-256 -77v105l256 87v-115z" />
    <glyph glyph-name="thorn" unicode="&#xfe;" 
d="M560 274v-32q0 -116 -52 -186.5t-161 -70.5q-98 0 -142 69v-220h-118v888h118v-261q45 70 142 70q109 0 161 -70.5t52 -186.5zM323 95q119 0 119 146v34q0 146 -119 146q-57 0 -87.5 -35t-30.5 -104v-41q0 -146 118 -146z" />
    <glyph glyph-name="ydieresis" unicode="&#xff;" 
d="M373 0l-18 -45q-39 -96 -89 -133t-141 -37q-17 0 -34.5 2.5t-26.5 4.5l-8 2v109q29 -10 75 -10q42 0 66.5 16.5t40.5 59.5l12 31l-207 516h131l138 -369l138 369h131zM140 645q0 31 22 53.5t54 22.5t54 -22.5t22 -53.5t-22 -53.5t-54 -22.5t-54 22.5t-22 53.5zM331 645
q0 31 22.5 53.5t53.5 22.5t53.5 -22.5t22.5 -53.5t-22.5 -53.5t-53.5 -22.5t-53.5 22.5t-22.5 53.5z" />
    <glyph glyph-name="dotlessi" unicode="&#x131;" 
d="M93 107h184v302h-150v107h268v-409h185v-107h-487v107z" />
    <glyph glyph-name="Lslash" unicode="&#x141;" 
d="M109 0v245l-56 -34v120l56 34v344h122v-268l142 88v-120l-142 -88v-205h367v-116h-489z" />
    <glyph glyph-name="lslash" unicode="&#x142;" 
d="M66 107h184v172l-101 -62v120l101 62v216h-150v107h268v-250l101 63v-120l-101 -63v-245h185v-107h-487v107z" />
    <glyph glyph-name="OE" unicode="&#x152;" 
d="M56 483q0 116 53.5 171t168.5 55h324v-116h-187v-168h149v-116h-149v-193h187v-116h-324q-115 0 -168.5 55t-53.5 171v257zM179 483v-257q0 -63 21 -85.5t81 -22.5h12v473h-12q-60 0 -81 -22.5t-21 -85.5z" />
    <glyph glyph-name="oe" unicode="&#x153;" 
d="M21 166v184q0 86 45.5 133.5t127.5 47.5q70 0 115 -36q45 36 115 36q82 0 127.5 -47.5t45.5 -133.5v-133h-230v-51q0 -73 57 -73q53 0 57 60h116q-4 -81 -49 -124.5t-124 -43.5q-70 0 -115 36q-45 -36 -115 -36q-82 0 -127.5 47.5t-45.5 133.5zM137 351v-186
q0 -72 57 -72t57 64v201q0 65 -57 65t-57 -72zM367 358v-45h114v38q0 72 -57 72t-57 -65z" />
    <glyph glyph-name="Scaron" unicode="&#x160;" 
d="M559 193q0 -101 -72 -154.5t-178 -53.5q-73 0 -127 25.5t-79 61.5t-39 72t-16 62l-1 25h124q0 -5 1 -14t8.5 -31t21 -39t43 -31t69.5 -14q58 0 90 23t32 66q0 35 -25.5 57.5t-82.5 40.5l-77 25q-83 27 -125 74.5t-42 129.5q0 96 63 151t169 55q50 0 90.5 -13t65.5 -34.5
t43.5 -47t27 -50.5t13.5 -46.5t6 -34.5v-13h-124q0 5 -0.5 13t-7.5 29t-18.5 37.5t-37.5 29.5t-61 13q-106 0 -106 -85q0 -35 23.5 -55.5t66.5 -34.5l77 -24q92 -28 138.5 -79t46.5 -136zM158 935l154 -84l149 84v-111l-149 -84l-154 84v111z" />
    <glyph glyph-name="scaron" unicode="&#x161;" 
d="M533 150q0 -80 -60.5 -122.5t-159.5 -42.5q-68 0 -118 21t-73 50.5t-36 59t-14 50.5l-2 21h117q0 -4 1 -10.5t7.5 -23t18.5 -29.5t38 -23.5t61 -10.5q100 0 100 57q0 22 -15 33t-52 17l-91 15q-154 25 -154 156q0 76 57 119.5t150 43.5q47 0 84.5 -10.5t60.5 -28t40 -38
t25 -41t12.5 -38t5.5 -27.5v-11h-116q0 4 -0.5 10t-6.5 21t-16.5 27t-34 21.5t-54.5 9.5q-88 0 -88 -54q0 -40 59 -50l91 -15q163 -27 163 -157zM158 742l154 -84l149 84v-111l-149 -84l-154 84v111z" />
    <glyph glyph-name="Ydieresis" unicode="&#x178;" 
d="M371 299v-188h161v-111h-444v111h161v188l-217 410h140l138 -283l138 283h140zM139 848q0 32 22.5 54t53.5 22t53.5 -22t22.5 -54t-22.5 -54t-53.5 -22t-53.5 22t-22.5 54zM330 848q0 32 22 54t54 22t54 -22t22 -54t-22 -54t-54 -22t-54 22t-22 54z" />
    <glyph glyph-name="Zcaron" unicode="&#x17d;" 
d="M549 709v-123l-341 -470h344v-116h-484v123l340 470h-334v116h475zM158 935l154 -84l149 84v-111l-149 -84l-154 84v111z" />
    <glyph glyph-name="zcaron" unicode="&#x17e;" 
d="M98 409v107h424v-103l-272 -306h275v-107h-430v102l273 307h-270zM158 742l154 -84l149 84v-111l-149 -84l-154 84v111z" />
    <glyph glyph-name="florin" unicode="&#x192;" 
d="M168 330v107h113l21 104q19 96 70 145.5t148 49.5l26 -1v-110q-10 1 -19 1q-52 0 -74.5 -21t-32.5 -71l-19 -97h93v-107h-114l-62 -316q-19 -96 -70 -145.5t-148 -49.5l-26 1v110q10 -1 19 -1q52 0 74.5 21t32.5 71l60 309h-92z" />
    <glyph glyph-name="circumflex" unicode="&#x2c6;" 
d="M310 631l-154 -84v111l154 84l149 -84v-111z" />
    <glyph glyph-name="caron" unicode="&#x2c7;" 
d="M156 742l154 -84l149 84v-111l-149 -84l-154 84v111z" />
    <glyph glyph-name="breve" unicode="&#x2d8;" 
d="M310 563q-76 0 -121 47t-47 112h102q3 -68 66 -68t66 68h102q-2 -65 -47 -112t-121 -47z" />
    <glyph glyph-name="dotaccent" unicode="&#x2d9;" 
d="M216 671q0 39 27.5 66.5t66.5 27.5q38 0 65.5 -27.5t27.5 -66.5q0 -38 -27.5 -65.5t-65.5 -27.5q-39 0 -66.5 27.5t-27.5 65.5z" />
    <glyph glyph-name="ring" unicode="&#x2da;" 
d="M192 680q0 49 34.5 83.5t83.5 34.5t83.5 -34.5t34.5 -83.5t-34.5 -83.5t-83.5 -34.5t-83.5 34.5t-34.5 83.5zM266 680q0 -18 13 -31t31 -13t31 13t13 31t-13 31t-31 13t-31 -13t-13 -31z" />
    <glyph glyph-name="ogonek" unicode="&#x2db;" 
d="M266 -157l-28 161h111l33 -161h-116z" />
    <glyph glyph-name="tilde" unicode="&#x2dc;" 
d="M401 582q-40 0 -95 17.5t-84 17.5q-28 0 -52.5 -8.5t-35.5 -17.5l-10 -9v113q35 30 95 30q40 0 95.5 -17.5t83.5 -17.5t52.5 8.5t35.5 17.5l10 9v-113q-35 -30 -95 -30z" />
    <glyph glyph-name="hungarumlaut" unicode="&#x2dd;" 
d="M308 640l-191 -81v94l191 99v-112zM503 640l-191 -81v94l191 99v-112z" />
    <glyph glyph-name="pi" unicode="&#x3c0;" 
d="M44 353q0 118 74 193t192 75t192 -75t74 -193t-74 -193t-192 -75t-192 75t-74 193zM116 353q0 -88 53 -142t141 -54t141 54t53 142t-53 142t-141 54t-141 -54t-53 -142zM213 215v276h126q46 0 73 -25t27 -67t-27 -67t-73 -25h-52v-92h-74zM287 376h50q25 0 25 23t-25 23
h-50v-46z" />
    <glyph glyph-name="endash" unicode="&#x2013;" 
d="M40 203v110h540v-110h-540z" />
    <glyph glyph-name="emdash" unicode="&#x2014;" 
d="M20 203v110h580v-110h-580z" />
    <glyph glyph-name="quoteleft" unicode="&#x2018;" 
d="M282 709h123l-50 -347h-140z" />
    <glyph glyph-name="quoteright" unicode="&#x2019;" 
d="M338 362h-123l50 347h140z" />
    <glyph glyph-name="quotesinglbase" unicode="&#x201a;" 
d="M338 -220h-123l50 347h140z" />
    <glyph glyph-name="quotedblleft" unicode="&#x201c;" 
d="M172 709h123l-50 -347h-140zM392 709h123l-50 -347h-140z" />
    <glyph glyph-name="quotedblright" unicode="&#x201d;" 
d="M448 362h-123l50 347h140zM228 362h-123l50 347h140z" />
    <glyph glyph-name="quotedblbase" unicode="&#x201e;" 
d="M448 -220h-123l50 347h140zM228 -220h-123l50 347h140z" />
    <glyph glyph-name="dagger" unicode="&#x2020;" 
d="M86 516h165v193h118v-193h164v-107h-164v-409h-118v409h-165v107z" />
    <glyph glyph-name="daggerdbl" unicode="&#x2021;" 
d="M369 -124h-118v193h-165v107h165v233h-165v107h165v193h118v-193h164v-107h-164v-233h164v-107h-164v-193z" />
    <glyph glyph-name="bullet" unicode="&#x2022;" 
d="M446 258q0 -56 -40 -96t-96 -40t-96 40t-40 96t40 96t96 40t96 -40t40 -96z" />
    <glyph glyph-name="ellipsis" unicode="&#x2026;" 
d="M232 74q0 32 23 55t55 23t55 -23t23 -55t-23 -55t-55 -23t-55 23t-23 55zM426 74q0 32 23 55t55 23t55 -23t23 -55t-23 -55t-55 -23t-55 23t-23 55zM38 74q0 32 23 55t55 23t55 -23t23 -55t-23 -55t-55 -23t-55 23t-23 55z" />
    <glyph glyph-name="perthousand" unicode="&#x2030;" 
d="M57 261v93l506 216v-93zM135 577q0 -58 40 -58t40 58t-40 58t-40 -58zM49 577q0 61 32 100t94 39t94 -39t32 -100t-32 -100t-94 -39t-94 39t-32 100zM135 129q0 -58 40 -58t40 58t-40 58t-40 -58zM49 129q0 61 32 100t94 39t94 -39t32 -100t-32 -100t-94 -39t-94 39
t-32 100zM404 129q0 -58 40 -58t40 58t-40 58t-40 -58zM318 129q0 61 32 100t94 39t94 -39t32 -100t-32 -100t-94 -39t-94 39t-32 100z" />
    <glyph glyph-name="guilsinglleft" unicode="&#x2039;" 
d="M314 0l-143 258l143 258h135l-145 -258l145 -258h-135z" />
    <glyph glyph-name="guilsinglright" unicode="&#x203a;" 
d="M449 258l-143 -258h-135l145 258l-145 258h135z" />
    <glyph glyph-name="fraction" unicode="&#x2044;" 
d="M583 709l-419 -709h-132l419 709h132z" />
    <glyph glyph-name="Euro" unicode="&#x20ac;" 
d="M580 487h-124q-8 120 -114 120q-58 0 -84 -28t-31 -91h186v-109h-187v-50h187v-109h-186q5 -63 31 -91t84 -28q106 0 114 120h124q-6 -113 -66.5 -175t-171.5 -62t-170.5 61.5t-67.5 174.5h-56v109h55v50h-55v109h56q8 113 67.5 174.5t170.5 61.5t171.5 -62t66.5 -175z
" />
    <glyph glyph-name="trademark" unicode="&#x2122;" 
d="M431 587l63 122h75v-352h-87v188l-51 -96l-51 96v-188h-87v352h75zM271 627h-81v-270h-87v270h-81v82h249v-82z" />
    <glyph glyph-name="minus" unicode="&#x2212;" 
d="M52 203v110h516v-110h-516z" />
    <glyph glyph-name="notequal" unicode="&#x2260;" 
d="M52 304v110h272l52 102h130l-52 -102h114v-110h-170l-52 -102h222v-110h-278l-47 -92h-130l47 92h-108v110h164l52 102h-216z" />
    <glyph glyph-name="lessequal" unicode="&#x2264;" 
d="M212 203l154 -174h-137l-201 229l201 229h138l-154 -174h378v-110h-379z" />
    <glyph glyph-name="greaterequal" unicode="&#x2265;" 
d="M253 29l154 174h-379v110h378l-154 174h138l201 -229l-201 -229h-137z" />
  </font>
</defs>
</svg>
